<svg width="1200" height="630" viewBox="0 0 1200 630" xmlns="http://www.w3.org/2000/svg">
<rect width="1200" height="630" fill="#0e0b09"/>
<circle cx="150" cy="315" r="450" fill="#1a1510" opacity="0.6"/>
<circle cx="1050" cy="315" r="380" fill="#1a1510" opacity="0.4"/>
<rect x="0" y="0" width="1200" height="2" fill="#c9a05a" opacity="0.5"/>
<rect x="0" y="628" width="1200" height="2" fill="#c9a05a" opacity="0.5"/>
<rect x="80" y="255" width="3" height="120" fill="#c9a05a" opacity="0.5"/>
<text x="120" y="230" font-family="Georgia,serif" font-size="12" fill="#c9a05a" opacity="0.8" letter-spacing="5">ALBUM PHOTO COUPLE · CADEAU ORIGINAL</text>
<text x="118" y="330" font-family="Georgia,serif" font-weight="bold" font-size="96" fill="#f2ebe0" letter-spacing="-3">Noustalgie</text>
<text x="120" y="395" font-family="Georgia,serif" font-style="italic" font-size="28" fill="rgba(242,235,224,0.45)">Votre histoire d'amour, immortalisée.</text>
<line x1="120" y1="432" x2="440" y2="432" stroke="#c9a05a" stroke-width="1" opacity="0.35"/>
<text x="120" y="462" font-family="sans-serif" font-size="17" fill="rgba(242,235,224,0.3)" letter-spacing="2">DÈS 19€  ·  APERÇU GRATUIT  ·  LIVRAISON 3-5 JOURS</text>
<rect x="790" y="70" width="340" height="490" rx="10" fill="#1c1610" stroke="#c9a05a" stroke-width="1" stroke-opacity="0.25"/>
<rect x="790" y="70" width="340" height="195" rx="10" fill="#271f14"/>
<text x="960" y="180" font-family="Georgia,serif" font-size="70" fill="rgba(201,160,90,0.12)" text-anchor="middle">♥</text>
<rect x="810" y="280" width="180" height="10" rx="5" fill="#c9a05a" opacity="0.18"/>
<rect x="810" y="300" width="295" height="8" rx="4" fill="rgba(242,235,224,0.07)"/>
<rect x="810" y="318" width="250" height="8" rx="4" fill="rgba(242,235,224,0.05)"/>
<rect x="810" y="336" width="270" height="8" rx="4" fill="rgba(242,235,224,0.05)"/>
<rect x="810" y="365" width="295" height="8" rx="4" fill="rgba(242,235,224,0.07)"/>
<rect x="810" y="383" width="220" height="8" rx="4" fill="rgba(242,235,224,0.05)"/>
<rect x="810" y="430" width="300" height="55" rx="5" fill="rgba(201,160,90,0.1)" stroke="#c9a05a" stroke-width="1" stroke-opacity="0.35"/>
<text x="960" y="463" font-family="sans-serif" font-size="13" fill="#c9a05a" text-anchor="middle" letter-spacing="2">CRÉER NOTRE ALBUM ♥</text>
<text x="1168" y="618" font-family="sans-serif" font-size="13" fill="rgba(201,160,90,0.35)" text-anchor="end" letter-spacing="1">noustalgie.fr</text>
</svg>
